<svg id="clubs" class="icons" xmlns="http://www.w3.org/2000/svg" id="Layer_1" viewBox="0 0 40 40">
  <style>
     .icons{opacity:0.7;fill:#000033;} 
  </style>
  <path id="Clubs_in_Career_4_" d="M34.2 4.8l-5.1-1.9c-1.2.9-2.5 1.7-4 2.2-.1 0-.2.1-.3.1l-1 .3c-.2 0-.4.1-.6.1-.3.1-.7.1-1 .2-.2 0-.4.1-.5.1-.6.1-1.2.1-1.7.1s-1 0-1.5-.1c-.2 0-.4-.1-.6-.1-.3 0-.6-.1-.8-.1-.2 0-.5-.1-.7-.2-.2-.1-.5-.1-.7-.2-.2-.1-.4-.1-.6-.2-.3-.1-.7-.3-1-.4H14c-1-.5-1.9-1-2.8-1.7L5.9 4.9c-2.4.8-4.3 3.5-4.3 6.1v8.6c0 2.1 1.7 3.9 3.8 3.9H9v9.7c0 2.2 1.8 4 4 4h14.2c2.2 0 4-1.8 4-4v-9.7h3.5c2.1 0 3.8-1.7 3.8-3.9V11c-.1-2.6-2-5.3-4.3-6.2zM36 15.3v4.3c0 .8-.6 1.4-1.4 1.4H31v-3.7c0-.7-.5-1.2-1.2-1.2s-1.2.6-1.2 1.2v15.9c0 .8-.7 1.5-1.5 1.5H12.9c-.8 0-1.5-.7-1.5-1.5v-16c0-.7-.5-1.2-1.2-1.2S9 16.5 9 17.2V21H5.4c-.8 0-1.4-.7-1.4-1.4V11c0-.8.4-1.7 1-2.5.5-.6 1.1-1.1 1.7-1.3l4.2-1.5c2.4 1.7 5.6 2.7 9.1 2.7 3.6 0 6.9-1.1 9.3-2.9l4 1.5c.7.3 1.3.8 1.8 1.4.5.9.9 1.8.9 2.6v4.3zm-11.1-1.8h-9.8c-.7 0-1.2.6-1.2 1.2 0 .7.5 1.2 1.2 1.2h9.8c.7 0 1.2-.6 1.2-1.2 0-.7-.5-1.2-1.2-1.2zm0 3.7h-9.8c-.7 0-1.2.6-1.2 1.2 0 .7.5 1.2 1.2 1.2h9.8c.7 0 1.2-.6 1.2-1.2s-.5-1.2-1.2-1.2z" class="st97"/>
</svg>
