<svg id="players" class="icons"  xmlns="http://www.w3.org/2000/svg" viewBox="0 0 40 40">
  <style>
    .icons{opacity:0.7;fill:#000033;}
  </style>
  <path class="st97" d="M34.2 26.6L27.6 24c-1.2-.4-2.3-1.8-2.6-3 2.2-2 3.6-5 3.6-8.6C28.6 6.7 24.6 2 20 2s-8.6 4.7-8.6 10.4c0 4 2 7.5 4.6 9.2-.5 1-1.3 2-2.3 2.4L6 26.7c-2.5.8-4.4 3.4-4.4 6 0 2.7 2.2 5 5 5h27c2.6 0 4.8-2.2 4.8-5 0-2.5-2-5.2-4.2-6zM14 12.6c0-4.5 2.7-8 6-8s6 3.6 6 8c0 4.3-2.7 7.8-6 7.8s-6-3.6-6-8zm.5 13.8c1.7-.6 3-2 3.8-3.7l1.8.2c1 0 2-.3 3-.7.5 1.8 2 3.3 3.5 4-1.8 1-4 1.6-6.5 1.6-2.2 0-4.3-.6-6-1.4l.5-.2zm19 8.7h-27C5 35 4 34 4 32.8c0-1.5 1.2-3.2 2.7-3.7l4.2-1.4c2.3 1.7 5.5 2.7 9 2.7 3.6 0 7-1 9.3-3l4 1.6c1.4.4 2.7 2.2 2.7 3.7 0 1.4-1 2.4-2.5 2.4z" id="Player_Profile_4_"/>
</svg>
