<svg id="skills" class="icons" xmlns="http://www.w3.org/2000/svg" id="Layer_1" viewBox="0 0 40 40">
  <style>
       .icons{opacity:0.7;fill:#000033;}
  </style>
  <path id="Sponsor7_4_" d="M37.8 12.3c-.4 0-.8.2-1 .5-.1 0-.1 0-.2.1-.7.4-1.5.6-2.4.6-1.6 0-3.1-.8-4-2.2-.4-.6-1.1-.7-1.7-.4-.6.4-.7 1.1-.4 1.7 1.4 2.1 3.6 3.3 6.1 3.3.8 0 1.6-.1 2.3-.4v7.2c0 .7-.6 1.2-1.2 1.2H4.7c-.7 0-1.2-.6-1.2-1.2v-.3c0-.8.7-1.7 1.5-1.9l8.1-2.2c1.4-.4 3.6-1.3 4.9-2l6.7-3.9c.6-.3.8-1.1.4-1.7-.4-.6-1.1-.8-1.7-.4l-6.7 3.9c-1.1.6-3 1.4-4.2 1.8l-8.1 2.2c-1.9.6-3.4 2.5-3.4 4.4v.3c0 2 1.7 3.7 3.7 3.7h1.1v1.9c0 .7.6 1.2 1.2 1.2s1.2-.6 1.2-1.2v-1.9h1.9v1.9c0 .7.6 1.2 1.2 1.2s1.2-.6 1.2-1.2v-1.9h1.7v1.9c0 .7.6 1.2 1.2 1.2s1.2-.6 1.2-1.2v-1.9h10.3v1.9c0 .7.6 1.2 1.2 1.2s1.2-.6 1.2-1.2v-1.9H31v1.9c0 .7.6 1.2 1.2 1.2s1.2-.6 1.2-1.2v-1.9h1.4c2.1 0 3.7-1.7 3.7-3.7v-9.3c.5-.7 0-1.3-.7-1.3zm-16.3 8z" class="st97"/>
</svg>
