<svg id="stadiums" class="icons" xmlns="http://www.w3.org/2000/svg" id="Layer_1" viewBox="0 0 40 40">
  <style>
   .icons{opacity:0.7;fill:#000033;}
  </style>
  <path id="Stadium_4_" d="M23.5 2.8h-7C7.6 2.8.4 10.2.4 19.1v1.8c0 8.9 7.2 16.3 16.1 16.3h7c8.9 0 16.1-7.4 16.1-16.3v-1.8c0-8.9-7.2-16.3-16.1-16.3zm-2.3 12.5c2.1.5 3.7 2.5 3.7 4.7s-1.6 4.2-3.7 4.7v-9.4zm-2.4 9.4c-2.1-.5-3.7-2.5-3.7-4.7s1.6-4.2 3.7-4.7v9.4zm0-12c-3.5.6-6.1 3.6-6.1 7.3s2.7 6.7 6.1 7.3v7.5h-2.3C9 34.8 2.8 28.5 2.8 21v-1.8c0-7.5 6.1-13.8 13.7-13.8h2.3v7.3zm18.4 8.2c0 7.5-6.1 13.8-13.7 13.8h-2.3v-7.5c3.5-.6 6.1-3.6 6.1-7.3s-2.7-6.7-6.1-7.3V5.3h2.3c7.5 0 13.7 6.3 13.7 13.8v1.8zm-4.9-7c-.7 0-1.2.5-1.2 1.2v9.8c0 .7.5 1.2 1.2 1.2s1.2-.5 1.2-1.2v-9.8c0-.7-.5-1.2-1.2-1.2zm-24.6 0c-.7 0-1.2.5-1.2 1.2v9.8c0 .7.5 1.2 1.2 1.2S9 25.6 9 24.9v-9.8c0-.7-.6-1.2-1.3-1.2z" class="st97"/>
</svg>
